%FSLAX43Y43*%
%MOMM*%
G71*
G01*
G75*
%ADD10C,0.300*%
%ADD11R,0.850X1.300*%
%ADD12R,0.300X1.600*%
%ADD13R,1.800X1.600*%
%ADD14R,1.600X1.800*%
%ADD15R,3.500X2.600*%
%ADD16R,2.200X0.550*%
%ADD17R,2.200X0.550*%
%ADD18C,0.075*%
%ADD19R,0.600X2.150*%
%ADD20R,1.200X2.000*%
%ADD21R,0.550X1.450*%
%ADD22R,0.550X1.450*%
%ADD23R,0.600X1.700*%
%ADD24R,0.600X2.150*%
%ADD25R,1.700X0.600*%
%ADD26R,2.150X1.100*%
%ADD27R,2.150X1.100*%
%ADD28R,2.150X3.500*%
%ADD29C,0.400*%
%ADD30C,0.500*%
%ADD31C,0.800*%
%ADD32C,0.600*%
%ADD33R,2.300X2.300*%
%ADD34C,2.300*%
%ADD35C,1.500*%
%ADD36C,1.600*%
%ADD37C,1.600*%
%ADD38R,1.600X1.600*%
%ADD39C,3.500*%
%ADD40C,2.000*%
%ADD41R,1.400X1.400*%
%ADD42C,1.400*%
%ADD43C,1.300*%
%ADD44R,1.500X1.500*%
%ADD45C,1.500*%
%ADD46C,1.200*%
%ADD47R,1.053X1.503*%
%ADD48R,0.503X1.803*%
%ADD49R,2.003X1.803*%
%ADD50R,1.803X2.003*%
%ADD51R,3.703X2.803*%
%ADD52R,2.403X0.753*%
%ADD53R,2.403X0.753*%
%ADD54R,0.803X2.353*%
%ADD55R,1.403X2.203*%
%ADD56R,0.753X1.653*%
%ADD57R,0.753X1.653*%
%ADD58R,0.803X1.903*%
%ADD59R,0.803X2.353*%
%ADD60R,1.903X0.803*%
%ADD61R,2.353X1.303*%
%ADD62R,2.353X1.303*%
%ADD63R,2.353X3.703*%
%ADD64R,2.503X2.503*%
%ADD65C,2.503*%
%ADD66C,1.703*%
%ADD67C,1.803*%
%ADD68C,1.803*%
%ADD69R,1.803X1.803*%
%ADD70C,3.703*%
%ADD71C,2.203*%
%ADD72R,1.603X1.603*%
%ADD73C,1.603*%
%ADD74C,1.503*%
%ADD75R,1.703X1.703*%
%ADD76C,1.703*%
%ADD77C,1.403*%
D64*
X11750Y5400D02*
D03*
D65*
X16750D02*
D03*
D66*
X37610Y30610D02*
D03*
X20269Y86762D02*
D03*
X15189Y84222D02*
D03*
Y86762D02*
D03*
X22809D02*
D03*
Y84222D02*
D03*
X80309Y41022D02*
D03*
X45900Y84592D02*
D03*
X30800Y53192D02*
D03*
X30800Y58192D02*
D03*
X45900Y89592D02*
D03*
X27900Y6800D02*
D03*
X76190Y104000D02*
D03*
X73650Y101460D02*
D03*
X76190D02*
D03*
X73650Y98920D02*
D03*
Y96380D02*
D03*
X76190D02*
D03*
X73650Y93840D02*
D03*
X76190D02*
D03*
X73650Y91300D02*
D03*
X76190D02*
D03*
X73650Y88760D02*
D03*
X76190D02*
D03*
X73650Y86220D02*
D03*
X76190D02*
D03*
X73650Y83680D02*
D03*
X76190D02*
D03*
X73650Y81140D02*
D03*
X76190D02*
D03*
X37610Y20450D02*
D03*
Y22990D02*
D03*
Y25530D02*
D03*
Y28070D02*
D03*
X40150Y30610D02*
D03*
X16388Y92235D02*
D03*
X40150Y28070D02*
D03*
Y25530D02*
D03*
Y22990D02*
D03*
X76190Y98920D02*
D03*
X72740Y23900D02*
D03*
X80309Y46102D02*
D03*
Y43562D02*
D03*
D67*
X11068Y36548D02*
D03*
X13608Y39088D02*
D03*
X16148Y36548D02*
D03*
Y39088D02*
D03*
X18688Y36548D02*
D03*
D68*
X13608D02*
D03*
X11068Y39088D02*
D03*
X18688D02*
D03*
X21228Y36548D02*
D03*
D69*
Y39088D02*
D03*
D70*
X3500Y108500D02*
D03*
X81500Y3500D02*
D03*
D71*
X82600Y104050D02*
D03*
X79600Y103950D02*
D03*
X82600Y99050D02*
D03*
X29400Y9800D02*
D03*
X22400D02*
D03*
X79600Y98950D02*
D03*
D72*
X72511Y12492D02*
D03*
X60011D02*
D03*
X47511D02*
D03*
X35011D02*
D03*
X12489Y49858D02*
D03*
X29242Y99989D02*
D03*
X63161Y73792D02*
D03*
D73*
X75011Y12492D02*
D03*
X62511D02*
D03*
X50011D02*
D03*
X37511D02*
D03*
X29242Y97489D02*
D03*
X65661Y73792D02*
D03*
X9989Y49858D02*
D03*
D74*
X27555Y70899D02*
D03*
Y73399D02*
D03*
D75*
X25349Y86762D02*
D03*
X80309Y35942D02*
D03*
X80375Y23900D02*
D03*
X23900Y6800D02*
D03*
X73650Y104000D02*
D03*
X16388Y89695D02*
D03*
X40150Y20450D02*
D03*
D76*
X17729Y84222D02*
D03*
X20269D02*
D03*
X25349D02*
D03*
D77*
X68100Y70150D02*
D03*
X71097Y88100D02*
D03*
X70750Y93850D02*
D03*
X64450D02*
D03*
X46197Y94100D02*
D03*
X34697Y60300D02*
D03*
X43450Y55750D02*
D03*
X41397Y49150D02*
D03*
X39800Y47650D02*
D03*
X45650Y48750D02*
D03*
X34450Y49250D02*
D03*
X35250Y43300D02*
D03*
X61197Y84800D02*
D03*
X55800Y88500D02*
D03*
X32600Y38850D02*
D03*
X29550D02*
D03*
X27397Y30650D02*
D03*
X66350Y104050D02*
D03*
X2700Y40200D02*
D03*
X4550Y39150D02*
D03*
X56850Y83000D02*
D03*
X50300Y83050D02*
D03*
X9900Y76200D02*
D03*
X50500Y75350D02*
D03*
X7200Y77050D02*
D03*
X53050Y77950D02*
D03*
X51900Y80400D02*
D03*
X55850D02*
D03*
X54300Y81550D02*
D03*
X50850Y81600D02*
D03*
X79150Y53550D02*
D03*
X46300D02*
D03*
X78550Y55250D02*
D03*
X40750Y53600D02*
D03*
X51350Y50700D02*
D03*
X37770D02*
D03*
X51250Y44250D02*
D03*
X48000Y45400D02*
D03*
X32550D02*
D03*
X40900D02*
D03*
X57450Y56350D02*
D03*
X49800Y55750D02*
D03*
X80350Y57850D02*
D03*
X50550D02*
D03*
X58600Y58950D02*
D03*
X52600Y57300D02*
D03*
X53600Y58400D02*
D03*
X60000Y59150D02*
D03*
Y60700D02*
D03*
X54600Y59450D02*
D03*
X58700Y61900D02*
D03*
X55150Y60800D02*
D03*
X55050Y63100D02*
D03*
X61350Y63850D02*
D03*
X59900Y16100D02*
D03*
X43900Y14650D02*
D03*
X56550Y10650D02*
D03*
X61400Y15700D02*
D03*
X60200Y65100D02*
D03*
X55000Y64700D02*
D03*
Y69950D02*
D03*
X54100Y73700D02*
D03*
X47800Y64900D02*
D03*
X43500Y69450D02*
D03*
X39250Y65000D02*
D03*
X43500Y60800D02*
D03*
X11700Y81400D02*
D03*
X10050Y81550D02*
D03*
X48950Y83750D02*
D03*
X22950Y80400D02*
D03*
X41950Y79350D02*
D03*
X21500Y80400D02*
D03*
X19800Y80300D02*
D03*
X40850Y76700D02*
D03*
X52500Y73050D02*
D03*
X30100Y74300D02*
D03*
X69550Y75400D02*
D03*
X66150Y36050D02*
D03*
X77600Y34600D02*
D03*
X50000Y76800D02*
D03*
X25650Y91050D02*
D03*
X82850Y83250D02*
D03*
X82950Y33050D02*
D03*
X33000Y102502D02*
D03*
X45550Y105800D02*
D03*
X40050Y73150D02*
D03*
X8100Y80400D02*
D03*
X43998Y42798D02*
D03*
X61050Y69450D02*
D03*
X60850Y72100D02*
D03*
X66750Y66400D02*
D03*
X30650Y83700D02*
D03*
X32000Y71500D02*
D03*
X33500Y63950D02*
D03*
X34000Y55350D02*
D03*
X18700Y73350D02*
D03*
X37050Y83650D02*
D03*
X26500Y89300D02*
D03*
X40400Y78850D02*
D03*
X38600D02*
D03*
X25050Y69700D02*
D03*
X33250Y53050D02*
D03*
X13250Y87887D02*
D03*
X51100Y47450D02*
D03*
X50050Y52150D02*
D03*
X39350Y52450D02*
D03*
X47150Y42750D02*
D03*
X51697Y42500D02*
D03*
X46797Y52000D02*
D03*
X65097Y49950D02*
D03*
X51350Y35750D02*
D03*
X54850Y36250D02*
D03*
X42450Y35650D02*
D03*
X39297Y35800D02*
D03*
X39397Y42700D02*
D03*
X36197Y35500D02*
D03*
X43650Y24250D02*
D03*
X51897Y16050D02*
D03*
X58500Y19350D02*
D03*
X58300Y29250D02*
D03*
X51550Y25750D02*
D03*
X47550Y30550D02*
D03*
X31350Y90350D02*
D03*
X30997Y87550D02*
D03*
X38397Y87050D02*
D03*
X42850Y86950D02*
D03*
X48750Y86350D02*
D03*
X54300D02*
D03*
X45497Y79050D02*
D03*
X50497Y79100D02*
D03*
X59697Y83150D02*
D03*
X59850Y77150D02*
D03*
X59100Y73150D02*
D03*
X59250Y68150D02*
D03*
X56150Y68450D02*
D03*
X52097Y63500D02*
D03*
X30697Y60700D02*
D03*
X27297Y62100D02*
D03*
X24097Y64900D02*
D03*
X14150Y65950D02*
D03*
X11050Y69650D02*
D03*
X8050Y67950D02*
D03*
X9797Y79100D02*
D03*
X13797Y79400D02*
D03*
X16500Y79550D02*
D03*
X9050Y83650D02*
D03*
X10897Y91500D02*
D03*
X15050Y96850D02*
D03*
X24897Y94700D02*
D03*
X23097Y91150D02*
D03*
X5900Y70503D02*
D03*
X9150Y74550D02*
D03*
X7750Y74600D02*
D03*
X7350Y89750D02*
D03*
X9300Y98400D02*
D03*
X18400Y76650D02*
D03*
M02*
