%FSLAX43Y43*%
%MOMM*%
G71*
G01*
G75*
%ADD10C,0.300*%
%ADD11R,0.850X1.300*%
%ADD12R,0.300X1.600*%
%ADD13R,1.800X1.600*%
%ADD14R,1.600X1.800*%
%ADD15R,3.500X2.600*%
%ADD16R,2.200X0.550*%
%ADD17R,2.200X0.550*%
%ADD18C,0.075*%
%ADD19R,0.600X2.150*%
%ADD20R,1.200X2.000*%
%ADD21R,0.550X1.450*%
%ADD22R,0.550X1.450*%
%ADD23R,0.600X1.700*%
%ADD24R,0.600X2.150*%
%ADD25R,1.700X0.600*%
%ADD26R,2.150X1.100*%
%ADD27R,2.150X1.100*%
%ADD28R,2.150X3.500*%
%ADD29C,0.400*%
%ADD30C,0.500*%
%ADD31C,0.800*%
%ADD32C,0.600*%
%ADD33R,2.300X2.300*%
%ADD34C,2.300*%
%ADD35C,1.500*%
%ADD36C,1.600*%
%ADD37C,1.600*%
%ADD38R,1.600X1.600*%
%ADD39C,3.500*%
%ADD40C,2.000*%
%ADD41R,1.400X1.400*%
%ADD42C,1.400*%
%ADD43C,1.300*%
%ADD44R,1.500X1.500*%
%ADD45C,1.500*%
%ADD46C,1.200*%
%ADD47R,1.053X1.503*%
%ADD48R,0.503X1.803*%
%ADD49R,2.003X1.803*%
%ADD50R,1.803X2.003*%
%ADD51R,3.703X2.803*%
%ADD52R,2.403X0.753*%
%ADD53R,2.403X0.753*%
%ADD54R,0.803X2.353*%
%ADD55R,1.403X2.203*%
%ADD56R,0.753X1.653*%
%ADD57R,0.753X1.653*%
%ADD58R,0.803X1.903*%
%ADD59R,0.803X2.353*%
%ADD60R,1.903X0.803*%
%ADD61R,2.353X1.303*%
%ADD62R,2.353X1.303*%
%ADD63R,2.353X3.703*%
%ADD64R,2.503X2.503*%
%ADD65C,2.503*%
%ADD66C,1.703*%
%ADD67C,1.803*%
%ADD68C,1.803*%
%ADD69R,1.803X1.803*%
%ADD70C,3.703*%
%ADD71C,2.203*%
%ADD72R,1.603X1.603*%
%ADD73C,1.603*%
%ADD74C,1.503*%
%ADD75R,1.703X1.703*%
%ADD76C,1.703*%
%ADD77C,1.403*%
D18*
X36477Y62934D02*
X36174Y63236D01*
X37396Y64458D01*
X37699Y64156D01*
X36477Y62934D01*
Y63022D02*
X36263Y63236D01*
X37396Y64370D01*
X37611Y64156D01*
X36477Y63022D01*
Y63110D02*
X36351Y63236D01*
X37396Y64282D01*
X37522Y64156D01*
X36477Y63110D01*
Y63199D02*
X36440Y63236D01*
X37396Y64193D01*
X37434Y64156D01*
X36477Y63199D01*
X36512Y63253D02*
X37362Y64139D01*
X36831Y62580D02*
X36528Y62883D01*
X37750Y64105D01*
X38053Y63802D01*
X36831Y62580D01*
Y62668D02*
X36616Y62883D01*
X37750Y64016D01*
X37964Y63802D01*
X36831Y62668D01*
Y62757D02*
X36705Y62883D01*
X37750Y63928D01*
X37876Y63802D01*
X36831Y62757D01*
Y62845D02*
X36793Y62883D01*
X37750Y63840D01*
X37788Y63802D01*
X36831Y62845D01*
X36865Y62899D02*
X37716Y63786D01*
X37184Y62226D02*
X36881Y62529D01*
X38104Y63751D01*
X38406Y63449D01*
X37184Y62226D01*
Y62315D02*
X36970Y62529D01*
X38104Y63663D01*
X38318Y63449D01*
X37184Y62315D01*
Y62403D02*
X37058Y62529D01*
X38104Y63575D01*
X38230Y63449D01*
X37184Y62403D01*
Y62492D02*
X37147Y62529D01*
X38104Y63486D01*
X38141Y63449D01*
X37184Y62492D01*
X37219Y62546D02*
X38069Y63432D01*
X37538Y61873D02*
X37235Y62176D01*
X38457Y63398D01*
X38760Y63095D01*
X37538Y61873D01*
Y61961D02*
X37323Y62176D01*
X38457Y63309D01*
X38671Y63095D01*
X37538Y61961D01*
Y62050D02*
X37412Y62176D01*
X38457Y63221D01*
X38583Y63095D01*
X37538Y62050D01*
Y62138D02*
X37500Y62176D01*
X38457Y63133D01*
X38495Y63095D01*
X37538Y62138D01*
X37572Y62192D02*
X38423Y63079D01*
X37891Y61519D02*
X37589Y61822D01*
X38811Y63044D01*
X39113Y62741D01*
X37891Y61519D01*
Y61608D02*
X37677Y61822D01*
X38811Y62956D01*
X39025Y62741D01*
X37891Y61608D01*
Y61696D02*
X37765Y61822D01*
X38811Y62867D01*
X38937Y62741D01*
X37891Y61696D01*
Y61785D02*
X37854Y61822D01*
X38811Y62779D01*
X38848Y62741D01*
X37891Y61785D01*
X37926Y61839D02*
X38776Y62725D01*
X38245Y61166D02*
X37942Y61469D01*
X39164Y62691D01*
X39467Y62388D01*
X38245Y61166D01*
Y61254D02*
X38031Y61469D01*
X39164Y62602D01*
X39379Y62388D01*
X38245Y61254D01*
Y61343D02*
X38119Y61469D01*
X39164Y62514D01*
X39290Y62388D01*
X38245Y61343D01*
Y61431D02*
X38207Y61469D01*
X39164Y62425D01*
X39202Y62388D01*
X38245Y61431D01*
X38279Y61485D02*
X39130Y62371D01*
X38598Y60812D02*
X38296Y61115D01*
X39518Y62337D01*
X39821Y62034D01*
X38598Y60812D01*
Y60901D02*
X38384Y61115D01*
X39518Y62249D01*
X39732Y62034D01*
X38598Y60901D01*
Y60989D02*
X38472Y61115D01*
X39518Y62160D01*
X39644Y62034D01*
X38598Y60989D01*
Y61077D02*
X38561Y61115D01*
X39518Y62072D01*
X39555Y62034D01*
X38598Y61077D01*
X38633Y61131D02*
X39483Y62018D01*
X39659Y59752D02*
X39356Y60054D01*
X40578Y61276D01*
X40881Y60974D01*
X39659Y59752D01*
Y59840D02*
X39445Y60054D01*
X40578Y61188D01*
X40793Y60974D01*
X39659Y59840D01*
Y59928D02*
X39533Y60054D01*
X40578Y61100D01*
X40704Y60974D01*
X39659Y59928D01*
Y60017D02*
X39621Y60054D01*
X40578Y61011D01*
X40616Y60974D01*
X39659Y60017D01*
X39693Y60071D02*
X40544Y60957D01*
X40013Y59398D02*
X39710Y59701D01*
X40932Y60923D01*
X41235Y60620D01*
X40013Y59398D01*
Y59486D02*
X39798Y59701D01*
X40932Y60834D01*
X41146Y60620D01*
X40013Y59486D01*
Y59575D02*
X39887Y59701D01*
X40932Y60746D01*
X41058Y60620D01*
X40013Y59575D01*
Y59663D02*
X39975Y59701D01*
X40932Y60658D01*
X40970Y60620D01*
X40013Y59663D01*
X40047Y59717D02*
X40898Y60604D01*
X40366Y59045D02*
X40063Y59347D01*
X41285Y60569D01*
X41588Y60267D01*
X40366Y59045D01*
Y59133D02*
X40152Y59347D01*
X41285Y60481D01*
X41500Y60267D01*
X40366Y59133D01*
Y59221D02*
X40240Y59347D01*
X41285Y60393D01*
X41411Y60267D01*
X40366Y59221D01*
Y59310D02*
X40329Y59347D01*
X41285Y60304D01*
X41323Y60267D01*
X40366Y59310D01*
X40401Y59364D02*
X41251Y60250D01*
X40720Y58691D02*
X40417Y58994D01*
X41639Y60216D01*
X41942Y59913D01*
X40720Y58691D01*
Y58779D02*
X40505Y58994D01*
X41639Y60127D01*
X41853Y59913D01*
X40720Y58779D01*
Y58868D02*
X40594Y58994D01*
X41639Y60039D01*
X41765Y59913D01*
X40720Y58868D01*
Y58956D02*
X40682Y58994D01*
X41639Y59951D01*
X41677Y59913D01*
X40720Y58956D01*
X40754Y59010D02*
X41605Y59897D01*
X41427Y57984D02*
X41124Y58287D01*
X42346Y59509D01*
X42649Y59206D01*
X41427Y57984D01*
Y58072D02*
X41213Y58287D01*
X42346Y59420D01*
X42561Y59206D01*
X41427Y58072D01*
Y58161D02*
X41301Y58287D01*
X42346Y59332D01*
X42472Y59206D01*
X41427Y58161D01*
Y58249D02*
X41389Y58287D01*
X42346Y59243D01*
X42384Y59206D01*
X41427Y58249D01*
X41461Y58303D02*
X42312Y59189D01*
X45972Y58287D02*
X45670Y57984D01*
X44448Y59206D01*
X44750Y59509D01*
X45972Y58287D01*
X45884D02*
X45670Y58072D01*
X44536Y59206D01*
X44750Y59420D01*
X45884Y58287D01*
X45796D02*
X45670Y58161D01*
X44624Y59206D01*
X44750Y59332D01*
X45796Y58287D01*
X45707D02*
X45670Y58249D01*
X44713Y59206D01*
X44750Y59243D01*
X45707Y58287D01*
X45653Y58321D02*
X44767Y59172D01*
X46326Y58640D02*
X46023Y58337D01*
X44801Y59559D01*
X45104Y59862D01*
X46326Y58640D01*
X46237D02*
X46023Y58426D01*
X44889Y59559D01*
X45104Y59774D01*
X46237Y58640D01*
X46149D02*
X46023Y58514D01*
X44978Y59559D01*
X45104Y59685D01*
X46149Y58640D01*
X46061D02*
X46023Y58603D01*
X45066Y59559D01*
X45104Y59597D01*
X46061Y58640D01*
X46007Y58675D02*
X45120Y59525D01*
X47033Y59347D02*
X46730Y59044D01*
X45508Y60267D01*
X45811Y60569D01*
X47033Y59347D01*
X46945D02*
X46730Y59133D01*
X45597Y60267D01*
X45811Y60481D01*
X46945Y59347D01*
X46856D02*
X46730Y59221D01*
X45685Y60267D01*
X45811Y60393D01*
X46856Y59347D01*
X46768D02*
X46730Y59310D01*
X45773Y60267D01*
X45811Y60304D01*
X46768Y59347D01*
X46714Y59382D02*
X45827Y60232D01*
X47387Y59701D02*
X47084Y59398D01*
X45862Y60620D01*
X46164Y60923D01*
X47387Y59701D01*
X47298D02*
X47084Y59486D01*
X45950Y60620D01*
X46164Y60835D01*
X47298Y59701D01*
X47210D02*
X47084Y59575D01*
X46038Y60620D01*
X46164Y60746D01*
X47210Y59701D01*
X47121D02*
X47084Y59663D01*
X46127Y60620D01*
X46164Y60658D01*
X47121Y59701D01*
X47067Y59735D02*
X46181Y60586D01*
X48094Y60408D02*
X47791Y60105D01*
X46569Y61327D01*
X46872Y61630D01*
X48094Y60408D01*
X48005D02*
X47791Y60193D01*
X46657Y61327D01*
X46872Y61542D01*
X48005Y60408D01*
X47917D02*
X47791Y60282D01*
X46746Y61327D01*
X46872Y61453D01*
X47917Y60408D01*
X47828D02*
X47791Y60370D01*
X46834Y61327D01*
X46872Y61365D01*
X47828Y60408D01*
X47774Y60442D02*
X46888Y61293D01*
X48447Y60762D02*
X48144Y60459D01*
X46922Y61681D01*
X47225Y61984D01*
X48447Y60762D01*
X48359D02*
X48144Y60547D01*
X47011Y61681D01*
X47225Y61895D01*
X48359Y60762D01*
X48270D02*
X48144Y60635D01*
X47099Y61681D01*
X47225Y61807D01*
X48270Y60762D01*
X48182D02*
X48144Y60724D01*
X47188Y61681D01*
X47225Y61718D01*
X48182Y60762D01*
X48128Y60796D02*
X47242Y61646D01*
X48801Y61115D02*
X48498Y60812D01*
X47276Y62034D01*
X47579Y62337D01*
X48801Y61115D01*
X48712D02*
X48498Y60901D01*
X47364Y62034D01*
X47579Y62249D01*
X48712Y61115D01*
X48624D02*
X48498Y60989D01*
X47453Y62034D01*
X47579Y62160D01*
X48624Y61115D01*
X48536D02*
X48498Y61077D01*
X47541Y62034D01*
X47579Y62072D01*
X48536Y61115D01*
X48482Y61149D02*
X47595Y62000D01*
X49154Y61469D02*
X48852Y61166D01*
X47630Y62388D01*
X47932Y62691D01*
X49154Y61469D01*
X49066D02*
X48852Y61254D01*
X47718Y62388D01*
X47932Y62602D01*
X49066Y61469D01*
X48978D02*
X48852Y61343D01*
X47806Y62388D01*
X47932Y62514D01*
X48978Y61469D01*
X48889D02*
X48852Y61431D01*
X47895Y62388D01*
X47932Y62425D01*
X48889Y61469D01*
X48835Y61503D02*
X47949Y62353D01*
X49861Y62176D02*
X49559Y61873D01*
X48337Y63095D01*
X48639Y63398D01*
X49861Y62176D01*
X49773D02*
X49559Y61961D01*
X48425Y63095D01*
X48639Y63309D01*
X49773Y62176D01*
X49685D02*
X49559Y62050D01*
X48513Y63095D01*
X48639Y63221D01*
X49685Y62176D01*
X49596D02*
X49559Y62138D01*
X48602Y63095D01*
X48639Y63133D01*
X49596Y62176D01*
X49542Y62210D02*
X48656Y63061D01*
X50215Y62529D02*
X49912Y62226D01*
X48690Y63449D01*
X48993Y63751D01*
X50215Y62529D01*
X50127D02*
X49912Y62315D01*
X48779Y63449D01*
X48993Y63663D01*
X50127Y62529D01*
X50038D02*
X49912Y62403D01*
X48867Y63449D01*
X48993Y63575D01*
X50038Y62529D01*
X49950D02*
X49912Y62492D01*
X48955Y63449D01*
X48993Y63486D01*
X49950Y62529D01*
X49896Y62564D02*
X49009Y63414D01*
X50569Y62883D02*
X50266Y62580D01*
X49044Y63802D01*
X49347Y64105D01*
X50569Y62883D01*
X50480D02*
X50266Y62668D01*
X49132Y63802D01*
X49347Y64016D01*
X50480Y62883D01*
X50392D02*
X50266Y62757D01*
X49221Y63802D01*
X49347Y63928D01*
X50392Y62883D01*
X50303D02*
X50266Y62845D01*
X49309Y63802D01*
X49347Y63840D01*
X50303Y62883D01*
X50249Y62917D02*
X49363Y63768D01*
X50922Y63236D02*
X50619Y62934D01*
X49397Y64156D01*
X49700Y64458D01*
X50922Y63236D01*
X50834D02*
X50619Y63022D01*
X49486Y64156D01*
X49700Y64370D01*
X50834Y63236D01*
X50745D02*
X50619Y63110D01*
X49574Y64156D01*
X49700Y64282D01*
X50745Y63236D01*
X50657D02*
X50619Y63199D01*
X49662Y64156D01*
X49700Y64193D01*
X50657Y63236D01*
X50603Y63271D02*
X49716Y64121D01*
X44397Y70853D02*
X44094Y71156D01*
X45316Y72378D01*
X45619Y72075D01*
X44397Y70853D01*
Y70942D02*
X44182Y71156D01*
X45316Y72290D01*
X45530Y72075D01*
X44397Y70942D01*
Y71030D02*
X44271Y71156D01*
X45316Y72201D01*
X45442Y72075D01*
X44397Y71030D01*
Y71118D02*
X44359Y71156D01*
X45316Y72113D01*
X45354Y72075D01*
X44397Y71118D01*
X44431Y71172D02*
X45282Y72059D01*
X44750Y70500D02*
X44448Y70802D01*
X45670Y72024D01*
X45972Y71722D01*
X44750Y70500D01*
Y70588D02*
X44536Y70802D01*
X45670Y71936D01*
X45884Y71722D01*
X44750Y70588D01*
Y70676D02*
X44624Y70802D01*
X45670Y71848D01*
X45796Y71722D01*
X44750Y70676D01*
Y70765D02*
X44713Y70802D01*
X45670Y71759D01*
X45707Y71722D01*
X44750Y70765D01*
X44785Y70819D02*
X45635Y71705D01*
X45104Y70146D02*
X44801Y70449D01*
X46023Y71671D01*
X46326Y71368D01*
X45104Y70146D01*
Y70234D02*
X44889Y70449D01*
X46023Y71582D01*
X46237Y71368D01*
X45104Y70234D01*
Y70323D02*
X44978Y70449D01*
X46023Y71494D01*
X46149Y71368D01*
X45104Y70323D01*
Y70411D02*
X45066Y70449D01*
X46023Y71406D01*
X46061Y71368D01*
X45104Y70411D01*
X45138Y70465D02*
X45989Y71352D01*
X45457Y69793D02*
X45155Y70095D01*
X46377Y71317D01*
X46679Y71015D01*
X45457Y69793D01*
Y69881D02*
X45243Y70095D01*
X46377Y71229D01*
X46591Y71015D01*
X45457Y69881D01*
Y69969D02*
X45331Y70095D01*
X46377Y71141D01*
X46503Y71015D01*
X45457Y69969D01*
Y70058D02*
X45420Y70095D01*
X46377Y71052D01*
X46414Y71015D01*
X45457Y70058D01*
X45492Y70112D02*
X46342Y70998D01*
X45811Y69439D02*
X45508Y69742D01*
X46730Y70964D01*
X47033Y70661D01*
X45811Y69439D01*
Y69527D02*
X45597Y69742D01*
X46730Y70875D01*
X46945Y70661D01*
X45811Y69527D01*
Y69616D02*
X45685Y69742D01*
X46730Y70787D01*
X46856Y70661D01*
X45811Y69616D01*
Y69704D02*
X45773Y69742D01*
X46730Y70699D01*
X46768Y70661D01*
X45811Y69704D01*
X45845Y69758D02*
X46696Y70645D01*
X46165Y69085D02*
X45862Y69388D01*
X47084Y70610D01*
X47387Y70307D01*
X46165Y69085D01*
Y69174D02*
X45950Y69388D01*
X47084Y70522D01*
X47298Y70307D01*
X46165Y69174D01*
Y69262D02*
X46039Y69388D01*
X47084Y70433D01*
X47210Y70307D01*
X46165Y69262D01*
Y69351D02*
X46127Y69388D01*
X47084Y70345D01*
X47121Y70307D01*
X46165Y69351D01*
X46199Y69405D02*
X47049Y70291D01*
X46518Y68732D02*
X46215Y69035D01*
X47437Y70257D01*
X47740Y69954D01*
X46518Y68732D01*
Y68820D02*
X46304Y69035D01*
X47437Y70168D01*
X47652Y69954D01*
X46518Y68820D01*
Y68909D02*
X46392Y69035D01*
X47437Y70080D01*
X47563Y69954D01*
X46518Y68909D01*
Y68997D02*
X46480Y69035D01*
X47437Y69992D01*
X47475Y69954D01*
X46518Y68997D01*
X46552Y69051D02*
X47403Y69937D01*
X46872Y68378D02*
X46569Y68681D01*
X47791Y69903D01*
X48094Y69600D01*
X46872Y68378D01*
Y68467D02*
X46657Y68681D01*
X47791Y69815D01*
X48005Y69600D01*
X46872Y68467D01*
Y68555D02*
X46746Y68681D01*
X47791Y69726D01*
X47917Y69600D01*
X46872Y68555D01*
Y68643D02*
X46834Y68681D01*
X47791Y69638D01*
X47828Y69600D01*
X46872Y68643D01*
X46906Y68698D02*
X47757Y69584D01*
X47225Y68025D02*
X46922Y68328D01*
X48144Y69550D01*
X48447Y69247D01*
X47225Y68025D01*
Y68113D02*
X47011Y68328D01*
X48144Y69461D01*
X48359Y69247D01*
X47225Y68113D01*
Y68202D02*
X47099Y68328D01*
X48144Y69373D01*
X48270Y69247D01*
X47225Y68202D01*
Y68290D02*
X47188Y68328D01*
X48144Y69284D01*
X48182Y69247D01*
X47225Y68290D01*
X47260Y68344D02*
X48110Y69230D01*
X47579Y67671D02*
X47276Y67974D01*
X48498Y69196D01*
X48801Y68893D01*
X47579Y67671D01*
Y67760D02*
X47364Y67974D01*
X48498Y69108D01*
X48712Y68893D01*
X47579Y67760D01*
Y67848D02*
X47453Y67974D01*
X48498Y69019D01*
X48624Y68893D01*
X47579Y67848D01*
Y67936D02*
X47541Y67974D01*
X48498Y68931D01*
X48536Y68893D01*
X47579Y67936D01*
X47613Y67990D02*
X48464Y68877D01*
X47932Y67318D02*
X47630Y67620D01*
X48852Y68842D01*
X49154Y68540D01*
X47932Y67318D01*
Y67406D02*
X47718Y67620D01*
X48852Y68754D01*
X49066Y68540D01*
X47932Y67406D01*
Y67494D02*
X47806Y67620D01*
X48852Y68666D01*
X48978Y68540D01*
X47932Y67494D01*
Y67583D02*
X47895Y67620D01*
X48852Y68577D01*
X48889Y68540D01*
X47932Y67583D01*
X47967Y67637D02*
X48817Y68523D01*
X48286Y66964D02*
X47983Y67267D01*
X49205Y68489D01*
X49508Y68186D01*
X48286Y66964D01*
Y67052D02*
X48071Y67267D01*
X49205Y68401D01*
X49420Y68186D01*
X48286Y67052D01*
Y67141D02*
X48160Y67267D01*
X49205Y68312D01*
X49331Y68186D01*
X48286Y67141D01*
Y67229D02*
X48248Y67267D01*
X49205Y68224D01*
X49243Y68186D01*
X48286Y67229D01*
X48320Y67283D02*
X49171Y68170D01*
X48639Y66611D02*
X48337Y66913D01*
X49559Y68135D01*
X49861Y67833D01*
X48639Y66611D01*
Y66699D02*
X48425Y66913D01*
X49559Y68047D01*
X49773Y67833D01*
X48639Y66699D01*
Y66787D02*
X48513Y66913D01*
X49559Y67959D01*
X49685Y67833D01*
X48639Y66787D01*
Y66876D02*
X48602Y66913D01*
X49559Y67870D01*
X49596Y67833D01*
X48639Y66876D01*
X48674Y66930D02*
X49524Y67816D01*
X48993Y66257D02*
X48690Y66560D01*
X49912Y67782D01*
X50215Y67479D01*
X48993Y66257D01*
Y66345D02*
X48779Y66560D01*
X49912Y67693D01*
X50127Y67479D01*
X48993Y66345D01*
Y66434D02*
X48867Y66560D01*
X49912Y67605D01*
X50038Y67479D01*
X48993Y66434D01*
Y66522D02*
X48955Y66560D01*
X49912Y67517D01*
X49950Y67479D01*
X48993Y66522D01*
X49027Y66576D02*
X49878Y67463D01*
X49347Y65903D02*
X49044Y66206D01*
X50266Y67428D01*
X50569Y67125D01*
X49347Y65903D01*
Y65992D02*
X49132Y66206D01*
X50266Y67340D01*
X50480Y67125D01*
X49347Y65992D01*
Y66080D02*
X49221Y66206D01*
X50266Y67251D01*
X50392Y67125D01*
X49347Y66080D01*
Y66169D02*
X49309Y66206D01*
X50266Y67163D01*
X50303Y67125D01*
X49347Y66169D01*
X49381Y66223D02*
X50231Y67109D01*
X37699Y65853D02*
X37396Y65550D01*
X36174Y66772D01*
X36477Y67075D01*
X37699Y65853D01*
X37611D02*
X37396Y65638D01*
X36263Y66772D01*
X36477Y66986D01*
X37611Y65853D01*
X37522D02*
X37396Y65727D01*
X36351Y66772D01*
X36477Y66898D01*
X37522Y65853D01*
X37434D02*
X37396Y65815D01*
X36440Y66772D01*
X36477Y66810D01*
X37434Y65853D01*
X37380Y65887D02*
X36494Y66738D01*
X38053Y66206D02*
X37750Y65903D01*
X36528Y67125D01*
X36831Y67428D01*
X38053Y66206D01*
X37964D02*
X37750Y65992D01*
X36616Y67125D01*
X36831Y67340D01*
X37964Y66206D01*
X37876D02*
X37750Y66080D01*
X36705Y67125D01*
X36831Y67251D01*
X37876Y66206D01*
X37788D02*
X37750Y66169D01*
X36793Y67125D01*
X36831Y67163D01*
X37788Y66206D01*
X37734Y66241D02*
X36847Y67091D01*
X38406Y66560D02*
X38104Y66257D01*
X36881Y67479D01*
X37184Y67782D01*
X38406Y66560D01*
X38318D02*
X38104Y66345D01*
X36970Y67479D01*
X37184Y67693D01*
X38318Y66560D01*
X38230D02*
X38104Y66434D01*
X37058Y67479D01*
X37184Y67605D01*
X38230Y66560D01*
X38141D02*
X38104Y66522D01*
X37147Y67479D01*
X37184Y67517D01*
X38141Y66560D01*
X38087Y66594D02*
X37201Y67445D01*
X38760Y66913D02*
X38457Y66611D01*
X37235Y67833D01*
X37538Y68135D01*
X38760Y66913D01*
X38671D02*
X38457Y66699D01*
X37323Y67833D01*
X37538Y68047D01*
X38671Y66913D01*
X38583D02*
X38457Y66787D01*
X37412Y67833D01*
X37538Y67959D01*
X38583Y66913D01*
X38495D02*
X38457Y66876D01*
X37500Y67833D01*
X37538Y67870D01*
X38495Y66913D01*
X38441Y66948D02*
X37554Y67798D01*
X39113Y67267D02*
X38811Y66964D01*
X37589Y68186D01*
X37891Y68489D01*
X39113Y67267D01*
X39025D02*
X38811Y67052D01*
X37677Y68186D01*
X37891Y68401D01*
X39025Y67267D01*
X38937D02*
X38811Y67141D01*
X37765Y68186D01*
X37891Y68312D01*
X38937Y67267D01*
X38848D02*
X38811Y67229D01*
X37854Y68186D01*
X37891Y68224D01*
X38848Y67267D01*
X38794Y67301D02*
X37908Y68152D01*
X39467Y67620D02*
X39164Y67318D01*
X37942Y68540D01*
X38245Y68842D01*
X39467Y67620D01*
X39379D02*
X39164Y67406D01*
X38031Y68540D01*
X38245Y68754D01*
X39379Y67620D01*
X39290D02*
X39164Y67494D01*
X38119Y68540D01*
X38245Y68666D01*
X39290Y67620D01*
X39202D02*
X39164Y67583D01*
X38207Y68540D01*
X38245Y68577D01*
X39202Y67620D01*
X39148Y67655D02*
X38261Y68505D01*
X39821Y67974D02*
X39518Y67671D01*
X38296Y68893D01*
X38598Y69196D01*
X39821Y67974D01*
X39732D02*
X39518Y67760D01*
X38384Y68893D01*
X38598Y69108D01*
X39732Y67974D01*
X39644D02*
X39518Y67848D01*
X38472Y68893D01*
X38598Y69019D01*
X39644Y67974D01*
X39555D02*
X39518Y67936D01*
X38561Y68893D01*
X38598Y68931D01*
X39555Y67974D01*
X39501Y68008D02*
X38615Y68859D01*
X40174Y68328D02*
X39871Y68025D01*
X38649Y69247D01*
X38952Y69550D01*
X40174Y68328D01*
X40086D02*
X39871Y68113D01*
X38738Y69247D01*
X38952Y69461D01*
X40086Y68328D01*
X39997D02*
X39871Y68202D01*
X38826Y69247D01*
X38952Y69373D01*
X39997Y68328D01*
X39909D02*
X39871Y68290D01*
X38914Y69247D01*
X38952Y69284D01*
X39909Y68328D01*
X39855Y68362D02*
X38968Y69212D01*
X40528Y68681D02*
X40225Y68378D01*
X39003Y69600D01*
X39306Y69903D01*
X40528Y68681D01*
X40439D02*
X40225Y68467D01*
X39091Y69600D01*
X39306Y69815D01*
X40439Y68681D01*
X40351D02*
X40225Y68555D01*
X39180Y69600D01*
X39306Y69726D01*
X40351Y68681D01*
X40262D02*
X40225Y68643D01*
X39268Y69600D01*
X39306Y69638D01*
X40262Y68681D01*
X40208Y68715D02*
X39322Y69566D01*
X40881Y69035D02*
X40578Y68732D01*
X39356Y69954D01*
X39659Y70257D01*
X40881Y69035D01*
X40793D02*
X40578Y68820D01*
X39445Y69954D01*
X39659Y70168D01*
X40793Y69035D01*
X40704D02*
X40578Y68909D01*
X39533Y69954D01*
X39659Y70080D01*
X40704Y69035D01*
X40616D02*
X40578Y68997D01*
X39622Y69954D01*
X39659Y69992D01*
X40616Y69035D01*
X40562Y69069D02*
X39676Y69920D01*
X41588Y69742D02*
X41285Y69439D01*
X40063Y70661D01*
X40366Y70964D01*
X41588Y69742D01*
X41500D02*
X41285Y69527D01*
X40152Y70661D01*
X40366Y70875D01*
X41500Y69742D01*
X41411D02*
X41285Y69616D01*
X40240Y70661D01*
X40366Y70787D01*
X41411Y69742D01*
X41323D02*
X41285Y69704D01*
X40329Y70661D01*
X40366Y70699D01*
X41323Y69742D01*
X41269Y69776D02*
X40383Y70627D01*
X41942Y70095D02*
X41639Y69793D01*
X40417Y71015D01*
X40720Y71317D01*
X41942Y70095D01*
X41853D02*
X41639Y69881D01*
X40505Y71015D01*
X40720Y71229D01*
X41853Y70095D01*
X41765D02*
X41639Y69969D01*
X40594Y71015D01*
X40720Y71141D01*
X41765Y70095D01*
X41677D02*
X41639Y70058D01*
X40682Y71015D01*
X40720Y71052D01*
X41677Y70095D01*
X41623Y70130D02*
X40736Y70980D01*
X42295Y70449D02*
X41993Y70146D01*
X40771Y71368D01*
X41073Y71671D01*
X42295Y70449D01*
X42207D02*
X41993Y70234D01*
X40859Y71368D01*
X41073Y71583D01*
X42207Y70449D01*
X42119D02*
X41993Y70323D01*
X40947Y71368D01*
X41073Y71494D01*
X42119Y70449D01*
X42030D02*
X41993Y70411D01*
X41036Y71368D01*
X41073Y71406D01*
X42030Y70449D01*
X41976Y70483D02*
X41090Y71334D01*
X42649Y70802D02*
X42346Y70500D01*
X41124Y71722D01*
X41427Y72024D01*
X42649Y70802D01*
X42561D02*
X42346Y70588D01*
X41213Y71722D01*
X41427Y71936D01*
X42561Y70802D01*
X42472D02*
X42346Y70676D01*
X41301Y71722D01*
X41427Y71848D01*
X42472Y70802D01*
X42384D02*
X42346Y70765D01*
X41389Y71722D01*
X41427Y71759D01*
X42384Y70802D01*
X42330Y70837D02*
X41443Y71687D01*
X43002Y71156D02*
X42700Y70853D01*
X41478Y72075D01*
X41780Y72378D01*
X43002Y71156D01*
X42914D02*
X42700Y70942D01*
X41566Y72075D01*
X41780Y72290D01*
X42914Y71156D01*
X42826D02*
X42700Y71030D01*
X41654Y72075D01*
X41780Y72201D01*
X42826Y71156D01*
X42737D02*
X42700Y71118D01*
X41743Y72075D01*
X41780Y72113D01*
X42737Y71156D01*
X42683Y71190D02*
X41797Y72041D01*
X46679Y58994D02*
X46377Y58691D01*
X45155Y59913D01*
X45457Y60216D01*
X46679Y58994D01*
X46591D02*
X46377Y58779D01*
X45243Y59913D01*
X45457Y60127D01*
X46591Y58994D01*
X46503D02*
X46377Y58868D01*
X45331Y59913D01*
X45457Y60039D01*
X46503Y58994D01*
X46414D02*
X46377Y58956D01*
X45420Y59913D01*
X45457Y59951D01*
X46414Y58994D01*
X46360Y59028D02*
X45474Y59879D01*
X45619Y57933D02*
X45316Y57630D01*
X44094Y58852D01*
X44397Y59155D01*
X45619Y57933D01*
X45530D02*
X45316Y57719D01*
X44182Y58852D01*
X44397Y59067D01*
X45530Y57933D01*
X45442D02*
X45316Y57807D01*
X44271Y58852D01*
X44397Y58978D01*
X45442Y57933D01*
X45354D02*
X45316Y57895D01*
X44359Y58852D01*
X44397Y58890D01*
X45354Y57933D01*
X45300Y57967D02*
X44413Y58818D01*
X41780Y57630D02*
X41478Y57933D01*
X42700Y59155D01*
X43002Y58852D01*
X41780Y57630D01*
Y57719D02*
X41566Y57933D01*
X42700Y59067D01*
X42914Y58852D01*
X41780Y57719D01*
Y57807D02*
X41654Y57933D01*
X42700Y58978D01*
X42826Y58852D01*
X41780Y57807D01*
Y57895D02*
X41743Y57933D01*
X42700Y58890D01*
X42737Y58852D01*
X41780Y57895D01*
X41815Y57949D02*
X42665Y58836D01*
X41073Y58337D02*
X40771Y58640D01*
X41993Y59862D01*
X42295Y59559D01*
X41073Y58337D01*
Y58426D02*
X40859Y58640D01*
X41993Y59774D01*
X42207Y59559D01*
X41073Y58426D01*
Y58514D02*
X40947Y58640D01*
X41993Y59685D01*
X42119Y59559D01*
X41073Y58514D01*
Y58603D02*
X41036Y58640D01*
X41993Y59597D01*
X42030Y59559D01*
X41073Y58603D01*
X41108Y58657D02*
X41958Y59543D01*
X47740Y60054D02*
X47437Y59752D01*
X46215Y60974D01*
X46518Y61276D01*
X47740Y60054D01*
X47652D02*
X47437Y59840D01*
X46304Y60974D01*
X46518Y61188D01*
X47652Y60054D01*
X47563D02*
X47437Y59928D01*
X46392Y60974D01*
X46518Y61100D01*
X47563Y60054D01*
X47475D02*
X47437Y60017D01*
X46480Y60974D01*
X46518Y61011D01*
X47475Y60054D01*
X47421Y60089D02*
X46534Y60939D01*
X49700Y65550D02*
X49397Y65853D01*
X50619Y67075D01*
X50922Y66772D01*
X49700Y65550D01*
Y65638D02*
X49486Y65853D01*
X50619Y66986D01*
X50834Y66772D01*
X49700Y65638D01*
Y65727D02*
X49574Y65853D01*
X50619Y66898D01*
X50745Y66772D01*
X49700Y65727D01*
Y65815D02*
X49662Y65853D01*
X50619Y66810D01*
X50657Y66772D01*
X49700Y65815D01*
X49734Y65869D02*
X50585Y66756D01*
X49508Y61822D02*
X49205Y61519D01*
X47983Y62741D01*
X48286Y63044D01*
X49508Y61822D01*
X49420D02*
X49205Y61608D01*
X48071Y62741D01*
X48286Y62956D01*
X49420Y61822D01*
X49331D02*
X49205Y61696D01*
X48160Y62741D01*
X48286Y62867D01*
X49331Y61822D01*
X49243D02*
X49205Y61785D01*
X48248Y62741D01*
X48286Y62779D01*
X49243Y61822D01*
X49189Y61857D02*
X48302Y62707D01*
X41235Y69388D02*
X40932Y69085D01*
X39710Y70307D01*
X40013Y70610D01*
X41235Y69388D01*
X41146D02*
X40932Y69174D01*
X39798Y70307D01*
X40013Y70522D01*
X41146Y69388D01*
X41058D02*
X40932Y69262D01*
X39887Y70307D01*
X40013Y70433D01*
X41058Y69388D01*
X40970D02*
X40932Y69351D01*
X39975Y70307D01*
X40013Y70345D01*
X40970Y69388D01*
X40916Y69423D02*
X40029Y70273D01*
X39306Y60105D02*
X39003Y60408D01*
X40225Y61630D01*
X40528Y61327D01*
X39306Y60105D01*
Y60194D02*
X39091Y60408D01*
X40225Y61542D01*
X40439Y61327D01*
X39306Y60194D01*
Y60282D02*
X39180Y60408D01*
X40225Y61453D01*
X40351Y61327D01*
X39306Y60282D01*
Y60370D02*
X39268Y60408D01*
X40225Y61365D01*
X40262Y61327D01*
X39306Y60370D01*
X39340Y60424D02*
X40190Y61311D01*
X38952Y60459D02*
X38649Y60761D01*
X39871Y61984D01*
X40174Y61681D01*
X38952Y60459D01*
Y60547D02*
X38738Y60761D01*
X39871Y61895D01*
X40086Y61681D01*
X38952Y60547D01*
Y60635D02*
X38826Y60761D01*
X39871Y61807D01*
X39997Y61681D01*
X38952Y60635D01*
Y60724D02*
X38914Y60761D01*
X39871Y61718D01*
X39909Y61681D01*
X38952Y60724D01*
X38986Y60778D02*
X39837Y61664D01*
D29*
X52093Y66836D02*
X53227Y65703D01*
X52235Y64711D01*
X51101Y65844D01*
X52093Y66836D01*
Y66365D02*
X52756Y65703D01*
X52235Y65182D01*
X51573Y65844D01*
X52093Y66365D01*
Y65894D02*
X52284Y65703D01*
X52235Y65653D01*
X52044Y65844D01*
X52093Y65894D01*
X52164Y65791D02*
Y65756D01*
X54073Y68816D02*
X55207Y67683D01*
X54215Y66690D01*
X53081Y67824D01*
X54073Y68816D01*
Y68345D02*
X54736Y67683D01*
X54215Y67162D01*
X53553Y67824D01*
X54073Y68345D01*
Y67873D02*
X54264Y67683D01*
X54215Y67633D01*
X54024Y67824D01*
X54073Y67873D01*
X54144Y67771D02*
Y67735D01*
D47*
X43148Y47002D02*
D03*
X45048Y47002D02*
D03*
X44098Y44802D02*
D03*
X66798Y31602D02*
D03*
X68698Y31602D02*
D03*
X30052Y82648D02*
D03*
X28152Y82648D02*
D03*
X29102Y84848D02*
D03*
X67748Y29402D02*
D03*
D48*
X54175Y89650D02*
D03*
X53525D02*
D03*
X50275D02*
D03*
X51575D02*
D03*
X52225D02*
D03*
X48325Y95350D02*
D03*
X48975D02*
D03*
X53525D02*
D03*
X54175D02*
D03*
X52875D02*
D03*
X52225D02*
D03*
X51575D02*
D03*
X50925D02*
D03*
X50275D02*
D03*
X49625D02*
D03*
X52875Y89650D02*
D03*
X50925Y89650D02*
D03*
X49625D02*
D03*
X48975D02*
D03*
X48325D02*
D03*
D49*
X56093Y90312D02*
D03*
X61807Y93038D02*
D03*
X58957Y93088D02*
D03*
X80507Y91038D02*
D03*
X65793Y14012D02*
D03*
X65793Y11212D02*
D03*
X21709Y51845D02*
D03*
Y49045D02*
D03*
X16809D02*
D03*
X13893Y68712D02*
D03*
X12007Y95488D02*
D03*
Y98288D02*
D03*
X2657Y91038D02*
D03*
X69707Y34888D02*
D03*
X33393Y73512D02*
D03*
X33393Y76312D02*
D03*
X56093Y93112D02*
D03*
X38257Y47588D02*
D03*
X38257Y44788D02*
D03*
X27543Y54212D02*
D03*
X27507Y56888D02*
D03*
X27557Y64538D02*
D03*
X27493Y79712D02*
D03*
X35957Y88238D02*
D03*
X33157Y88188D02*
D03*
X27543Y51412D02*
D03*
X27507Y59688D02*
D03*
X27557Y67338D02*
D03*
X27493Y76912D02*
D03*
X68857Y104038D02*
D03*
X69707Y37688D02*
D03*
X35957Y85438D02*
D03*
X33157Y85388D02*
D03*
X56353Y40762D02*
D03*
X56353Y37962D02*
D03*
X53250Y37955D02*
D03*
Y40755D02*
D03*
X50125Y37938D02*
D03*
Y40738D02*
D03*
X47012D02*
D03*
X43998D02*
D03*
X40884Y37962D02*
D03*
X40884Y40762D02*
D03*
X37770Y37962D02*
D03*
X37770Y40762D02*
D03*
X34643Y37962D02*
D03*
Y40762D02*
D03*
X31793Y16412D02*
D03*
X69143Y13962D02*
D03*
X12257Y77138D02*
D03*
X15357D02*
D03*
X28793Y90362D02*
D03*
X13243Y89612D02*
D03*
X13243Y92412D02*
D03*
X23107Y69688D02*
D03*
Y72488D02*
D03*
X28793Y87562D02*
D03*
X15357Y74338D02*
D03*
X12257D02*
D03*
X31793Y13612D02*
D03*
X43998Y37938D02*
D03*
X47012D02*
D03*
X67757Y23938D02*
D03*
X68857Y106838D02*
D03*
X67757Y26738D02*
D03*
X2657Y88238D02*
D03*
X13893Y71512D02*
D03*
X16809Y51845D02*
D03*
X69143Y11162D02*
D03*
X80507Y93838D02*
D03*
X58957Y90288D02*
D03*
X61807Y90238D02*
D03*
D50*
X27425Y41343D02*
D03*
X30225Y41343D02*
D03*
X27456Y43659D02*
D03*
X30256D02*
D03*
X53488Y44243D02*
D03*
X56288Y44243D02*
D03*
X53538Y47543D02*
D03*
X56338Y47543D02*
D03*
X53588Y50693D02*
D03*
X56388Y50693D02*
D03*
X53588Y53743D02*
D03*
X56388Y53743D02*
D03*
X30272Y46307D02*
D03*
X27472D02*
D03*
X30262Y48656D02*
D03*
X27462Y48656D02*
D03*
X80462Y72807D02*
D03*
X77662Y72807D02*
D03*
X80462Y75757D02*
D03*
X77662Y75757D02*
D03*
X43812Y12457D02*
D03*
X56562D02*
D03*
X77205Y36859D02*
D03*
X56412Y30939D02*
D03*
Y21015D02*
D03*
Y27631D02*
D03*
Y17707D02*
D03*
X29005Y103759D02*
D03*
X31805D02*
D03*
X28955Y106606D02*
D03*
X31755D02*
D03*
X5438Y95593D02*
D03*
X74284Y32093D02*
D03*
X71484Y32093D02*
D03*
X2038Y80543D02*
D03*
X79888Y32143D02*
D03*
X77088D02*
D03*
X4838Y80543D02*
D03*
X33988Y106543D02*
D03*
X68788Y86993D02*
D03*
X65988Y86993D02*
D03*
X60262Y86957D02*
D03*
X63062Y86957D02*
D03*
X53612Y34247D02*
D03*
X56412Y34247D02*
D03*
X48988Y34233D02*
D03*
X46188Y34233D02*
D03*
X56412Y24323D02*
D03*
X46188Y24309D02*
D03*
X48988Y24309D02*
D03*
X53612Y24323D02*
D03*
X61712Y108707D02*
D03*
X36788Y106543D02*
D03*
X82388Y108543D02*
D03*
X64512Y108707D02*
D03*
X79588Y108543D02*
D03*
X8238Y95593D02*
D03*
X53612Y17707D02*
D03*
Y27631D02*
D03*
Y21015D02*
D03*
Y30939D02*
D03*
X74405Y36859D02*
D03*
X53762Y12457D02*
D03*
X41012D02*
D03*
X69288Y91543D02*
D03*
X66488Y91543D02*
D03*
X42538Y89593D02*
D03*
X39738D02*
D03*
X42588Y84493D02*
D03*
X39788Y84493D02*
D03*
D51*
X72100Y71400D02*
D03*
Y42100D02*
D03*
D52*
X44838Y28510D02*
D03*
Y27240D02*
D03*
X50038Y31050D02*
D03*
Y29780D02*
D03*
Y27240D02*
D03*
X50038Y20080D02*
D03*
Y21350D02*
D03*
X44838Y17540D02*
D03*
Y18810D02*
D03*
X50038Y28510D02*
D03*
X44838Y31050D02*
D03*
D53*
X50038Y17540D02*
D03*
Y18810D02*
D03*
X44838Y20080D02*
D03*
Y21350D02*
D03*
X44838Y29780D02*
D03*
D54*
X2905Y65775D02*
D03*
X4175D02*
D03*
X7985D02*
D03*
X10525D02*
D03*
X11795D02*
D03*
X44195Y93375D02*
D03*
X36575D02*
D03*
X35305D02*
D03*
X37845Y102625D02*
D03*
X40385D02*
D03*
Y93375D02*
D03*
X37845D02*
D03*
X6715Y65775D02*
D03*
X35305Y102625D02*
D03*
X36575D02*
D03*
X44195D02*
D03*
X4175Y56525D02*
D03*
X5445D02*
D03*
X6715D02*
D03*
X7985D02*
D03*
X9255D02*
D03*
X5445Y65775D02*
D03*
X9255D02*
D03*
X42925Y102625D02*
D03*
X41655D02*
D03*
X39115D02*
D03*
X42925Y93375D02*
D03*
X41655D02*
D03*
X39115D02*
D03*
D55*
X19250Y65700D02*
D03*
X21750Y65700D02*
D03*
X20300Y96350D02*
D03*
X21750Y54700D02*
D03*
X16750D02*
D03*
Y65700D02*
D03*
X17800Y107350D02*
D03*
X22800D02*
D03*
X17800Y96350D02*
D03*
X22800D02*
D03*
X20300Y107350D02*
D03*
X19250Y54700D02*
D03*
D56*
X17600Y70975D02*
D03*
X19500D02*
D03*
Y68825D02*
D03*
X21300Y90875D02*
D03*
X19400D02*
D03*
X20350Y93025D02*
D03*
X19400D02*
D03*
X21300D02*
D03*
X17600Y68825D02*
D03*
D57*
X18550Y68825D02*
D03*
D58*
X5495Y92000D02*
D03*
X9305Y86300D02*
D03*
X6765Y92000D02*
D03*
Y86300D02*
D03*
X8035Y92000D02*
D03*
X9305D02*
D03*
X5495Y86300D02*
D03*
X8035D02*
D03*
D59*
X11795Y56525D02*
D03*
X10525D02*
D03*
X2905D02*
D03*
D60*
X48000Y104515D02*
D03*
X53700Y105785D02*
D03*
Y104515D02*
D03*
Y107055D02*
D03*
X48000Y105785D02*
D03*
X53700Y103245D02*
D03*
X48000D02*
D03*
Y107055D02*
D03*
D61*
X68900Y78950D02*
D03*
D62*
X68900Y81250D02*
D03*
Y83550D02*
D03*
D63*
X62700Y81250D02*
D03*
D64*
X11750Y5400D02*
D03*
D65*
X16750D02*
D03*
D66*
X37610Y30610D02*
D03*
X20269Y86762D02*
D03*
X15189Y84222D02*
D03*
Y86762D02*
D03*
X22809D02*
D03*
Y84222D02*
D03*
X80309Y41022D02*
D03*
X45900Y84592D02*
D03*
X30800Y53192D02*
D03*
X30800Y58192D02*
D03*
X45900Y89592D02*
D03*
X27900Y6800D02*
D03*
X76190Y104000D02*
D03*
X73650Y101460D02*
D03*
X76190D02*
D03*
X73650Y98920D02*
D03*
Y96380D02*
D03*
X76190D02*
D03*
X73650Y93840D02*
D03*
X76190D02*
D03*
X73650Y91300D02*
D03*
X76190D02*
D03*
X73650Y88760D02*
D03*
X76190D02*
D03*
X73650Y86220D02*
D03*
X76190D02*
D03*
X73650Y83680D02*
D03*
X76190D02*
D03*
X73650Y81140D02*
D03*
X76190D02*
D03*
X37610Y20450D02*
D03*
Y22990D02*
D03*
Y25530D02*
D03*
Y28070D02*
D03*
X40150Y30610D02*
D03*
X16388Y92235D02*
D03*
X40150Y28070D02*
D03*
Y25530D02*
D03*
Y22990D02*
D03*
X76190Y98920D02*
D03*
X72740Y23900D02*
D03*
X80309Y46102D02*
D03*
Y43562D02*
D03*
D67*
X11068Y36548D02*
D03*
X13608Y39088D02*
D03*
X16148Y36548D02*
D03*
Y39088D02*
D03*
X18688Y36548D02*
D03*
D68*
X13608D02*
D03*
X11068Y39088D02*
D03*
X18688D02*
D03*
X21228Y36548D02*
D03*
D69*
Y39088D02*
D03*
D70*
X3500Y108500D02*
D03*
X81500Y3500D02*
D03*
D71*
X82600Y104050D02*
D03*
X79600Y103950D02*
D03*
X82600Y99050D02*
D03*
X29400Y9800D02*
D03*
X22400D02*
D03*
X79600Y98950D02*
D03*
D72*
X72511Y12492D02*
D03*
X60011D02*
D03*
X47511D02*
D03*
X35011D02*
D03*
X12489Y49858D02*
D03*
X29242Y99989D02*
D03*
X63161Y73792D02*
D03*
D73*
X75011Y12492D02*
D03*
X62511D02*
D03*
X50011D02*
D03*
X37511D02*
D03*
X29242Y97489D02*
D03*
X65661Y73792D02*
D03*
X9989Y49858D02*
D03*
D74*
X27555Y70899D02*
D03*
Y73399D02*
D03*
D75*
X25349Y86762D02*
D03*
X80309Y35942D02*
D03*
X80375Y23900D02*
D03*
X23900Y6800D02*
D03*
X73650Y104000D02*
D03*
X16388Y89695D02*
D03*
X40150Y20450D02*
D03*
D76*
X17729Y84222D02*
D03*
X20269D02*
D03*
X25349D02*
D03*
D77*
X68100Y70150D02*
D03*
X71097Y88100D02*
D03*
X70750Y93850D02*
D03*
X64450D02*
D03*
X46197Y94100D02*
D03*
X34697Y60300D02*
D03*
X43450Y55750D02*
D03*
X41397Y49150D02*
D03*
X39800Y47650D02*
D03*
X45650Y48750D02*
D03*
X34450Y49250D02*
D03*
X35250Y43300D02*
D03*
X61197Y84800D02*
D03*
X55800Y88500D02*
D03*
X32600Y38850D02*
D03*
X29550D02*
D03*
X27397Y30650D02*
D03*
X66350Y104050D02*
D03*
X2700Y40200D02*
D03*
X4550Y39150D02*
D03*
X56850Y83000D02*
D03*
X50300Y83050D02*
D03*
X9900Y76200D02*
D03*
X50500Y75350D02*
D03*
X7200Y77050D02*
D03*
X53050Y77950D02*
D03*
X51900Y80400D02*
D03*
X55850D02*
D03*
X54300Y81550D02*
D03*
X50850Y81600D02*
D03*
X79150Y53550D02*
D03*
X46300D02*
D03*
X78550Y55250D02*
D03*
X40750Y53600D02*
D03*
X51350Y50700D02*
D03*
X37770D02*
D03*
X51250Y44250D02*
D03*
X48000Y45400D02*
D03*
X32550D02*
D03*
X40900D02*
D03*
X57450Y56350D02*
D03*
X49800Y55750D02*
D03*
X80350Y57850D02*
D03*
X50550D02*
D03*
X58600Y58950D02*
D03*
X52600Y57300D02*
D03*
X53600Y58400D02*
D03*
X60000Y59150D02*
D03*
Y60700D02*
D03*
X54600Y59450D02*
D03*
X58700Y61900D02*
D03*
X55150Y60800D02*
D03*
X55050Y63100D02*
D03*
X61350Y63850D02*
D03*
X59900Y16100D02*
D03*
X43900Y14650D02*
D03*
X56550Y10650D02*
D03*
X61400Y15700D02*
D03*
X60200Y65100D02*
D03*
X55000Y64700D02*
D03*
Y69950D02*
D03*
X54100Y73700D02*
D03*
X47800Y64900D02*
D03*
X43500Y69450D02*
D03*
X39250Y65000D02*
D03*
X43500Y60800D02*
D03*
X11700Y81400D02*
D03*
X10050Y81550D02*
D03*
X48950Y83750D02*
D03*
X22950Y80400D02*
D03*
X41950Y79350D02*
D03*
X21500Y80400D02*
D03*
X19800Y80300D02*
D03*
X40850Y76700D02*
D03*
X52500Y73050D02*
D03*
X30100Y74300D02*
D03*
X69550Y75400D02*
D03*
X66150Y36050D02*
D03*
X77600Y34600D02*
D03*
X50000Y76800D02*
D03*
X25650Y91050D02*
D03*
X82850Y83250D02*
D03*
X82950Y33050D02*
D03*
X33000Y102502D02*
D03*
X45550Y105800D02*
D03*
X40050Y73150D02*
D03*
X8100Y80400D02*
D03*
X43998Y42798D02*
D03*
X61050Y69450D02*
D03*
X60850Y72100D02*
D03*
X66750Y66400D02*
D03*
X30650Y83700D02*
D03*
X32000Y71500D02*
D03*
X33500Y63950D02*
D03*
X34000Y55350D02*
D03*
X18700Y73350D02*
D03*
X37050Y83650D02*
D03*
X26500Y89300D02*
D03*
X40400Y78850D02*
D03*
X38600D02*
D03*
X25050Y69700D02*
D03*
X33250Y53050D02*
D03*
X13250Y87887D02*
D03*
X51100Y47450D02*
D03*
X50050Y52150D02*
D03*
X39350Y52450D02*
D03*
X47150Y42750D02*
D03*
X51697Y42500D02*
D03*
X46797Y52000D02*
D03*
X65097Y49950D02*
D03*
X51350Y35750D02*
D03*
X54850Y36250D02*
D03*
X42450Y35650D02*
D03*
X39297Y35800D02*
D03*
X39397Y42700D02*
D03*
X36197Y35500D02*
D03*
X43650Y24250D02*
D03*
X51897Y16050D02*
D03*
X58500Y19350D02*
D03*
X58300Y29250D02*
D03*
X51550Y25750D02*
D03*
X47550Y30550D02*
D03*
X31350Y90350D02*
D03*
X30997Y87550D02*
D03*
X38397Y87050D02*
D03*
X42850Y86950D02*
D03*
X48750Y86350D02*
D03*
X54300D02*
D03*
X45497Y79050D02*
D03*
X50497Y79100D02*
D03*
X59697Y83150D02*
D03*
X59850Y77150D02*
D03*
X59100Y73150D02*
D03*
X59250Y68150D02*
D03*
X56150Y68450D02*
D03*
X52097Y63500D02*
D03*
X30697Y60700D02*
D03*
X27297Y62100D02*
D03*
X24097Y64900D02*
D03*
X14150Y65950D02*
D03*
X11050Y69650D02*
D03*
X8050Y67950D02*
D03*
X9797Y79100D02*
D03*
X13797Y79400D02*
D03*
X16500Y79550D02*
D03*
X9050Y83650D02*
D03*
X10897Y91500D02*
D03*
X15050Y96850D02*
D03*
X24897Y94700D02*
D03*
X23097Y91150D02*
D03*
X5900Y70503D02*
D03*
X9150Y74550D02*
D03*
X7750Y74600D02*
D03*
X7350Y89750D02*
D03*
X9300Y98400D02*
D03*
X18400Y76650D02*
D03*
M02*
