METRIC,LZ
M48
T1F00S00C0.700
T2F00S00C0.850
T3F00S00C0.900
T4F00S00C1.000
T5F00S00C1.100
T6F00S00C1.300
T7F00S00C3.500
%
T01
X00439Y001465
X0051897Y001605
X00599Y00161
X00614Y00157
X00585Y001935
X005655Y001065
X005155Y002575
X004365Y002425
X00268Y004915
X0027297Y00621
X0024097Y00649
X001415Y006595
X000455Y003915
X00027Y00402
X003255Y00454
X0035197Y00471
X003565Y00493
X003395Y005065
X003325Y005305
X0034Y005535
X003935Y005245
X004075Y00536
X004135Y00493
X0039997Y00475
X00409Y00454
X0039397Y00427
X00367Y00443
X003777Y00507
X003065Y004955
X0030697Y00607
X00335Y006395
X003925Y0065
X00435Y00608
X004345Y00563
X00463Y005355
X0046797Y0052
X005005Y005215
X005135Y00507
X00511Y004745
X005125Y004425
X0051697Y00425
X004715Y004275
X0043998Y0042798
X0048Y00454
X0046197Y00478
X00498Y005575
X005055Y005785
X00526Y00573
X00536Y00584
X00546Y005945
X005515Y00608
X005505Y00631
X0055Y00647
X0052097Y00635
X00478Y00649
X00602Y00651
X006135Y006385
X006Y00607
Y005915
X00586Y005895
X00587Y00619
X005745Y005635
X0065097Y004995
X006615Y003605
X005485Y003625
X005135Y003575
X004755Y003055
X004245Y003565
X0039297Y00358
X0036197Y00355
X00583Y002925
X00776Y00346
X008295Y003305
X007915Y005355
X007855Y005525
X008035Y005785
X00692Y00701
X006955Y00754
X008285Y008325
X0059697Y008315
X005685Y0083
X005585Y00804
X00543Y008155
X005085Y00816
X00503Y008305
X004895Y008375
X004875Y008635
X00543
X005575Y008855
X00519Y00804
X0050497Y00791
X005Y00768
X00505Y007535
X00525Y007305
X00541Y00737
X0055Y006995
X005615Y006845
X005925Y006815
X006105Y006945
X006085Y00721
X00591Y007315
X005985Y007715
X005305Y007795
X0045497Y007905
X004195Y007935
X00404Y007885
X00386
X004085Y00767
X004005Y007315
X00435Y006945
X0032Y00715
X00301Y00743
X003065Y00837
X0030997Y008755
X003135Y009035
X0038397Y008705
X004285Y008695
X003705Y008365
X0033Y0102502
X004555Y01058
X006635Y010405
X006675Y00664
X002505Y00697
X00187Y007335
X00184Y007665
X00165Y007955
X0013797Y00794
X00117Y00814
X001005Y008155
X0009797Y00791
X00081Y00804
X000905Y008365
X000735Y008975
X0010897Y00915
X001325Y0087887
X001505Y009685
X00093Y00984
X0024897Y00947
X002565Y009105
X00265Y00893
X0023097Y009115
X002295Y00804
X00215
X00198Y00803
X00099Y00762
X000915Y007455
X000775Y00746
X00072Y007705
X00059Y0070503
X000805Y006795
X001105Y006965
T02
X0072511Y0012492
X0075011
X0062511
X0060011
X0050011
X0047511
X0037511
X0035011
X0012489Y0049858
X0009989
X0029242Y0097489
Y0099989
X0063161Y0073792
X0065661
X0027555Y0073399
Y0070899
T03
X003761Y002045
Y002299
Y002553
X004015
Y002299
Y002045
Y002807
X003761
Y003061
X004015
X007365Y008114
Y008368
Y008622
Y008876
Y00913
Y009384
Y009638
Y009892
Y010146
Y0104
X007619
Y010146
Y009892
Y009638
Y009384
Y00913
Y008876
Y008622
Y008368
Y008114
X0016388Y0089695
X0016388Y0092235
T04
X007274Y00239
X0080375
X00294Y00098
X00279Y00068
X00239
X00224Y00098
X00308Y0053192
X00308Y0058192
X0080309Y0046102
Y0043562
Y0041022
Y0035942
X00826Y009905
X00796Y010395
X00459Y0089592
X00459Y0084592
X0025349Y0084222
X0022809
X0022809Y0086762
X0025349
X0020269
X0020269Y0084222
X0017729
X0015189
Y0086762
T05
X0011118Y0036548
X0013658
X0013658Y0039088
X0016198
X0018738
X0021278
Y0036548
X0018738
X0016198
X0011118Y0039088
T06
X001175Y00054
X001675
X00796Y009895
X00826Y010405
T07
X00815Y00035
X00035Y01085
M30
